<?xml version="1.0" encoding="UTF-8" standalone="no"?>
<!-- Created with Inkscape (http://www.inkscape.org/) -->

<svg
   xmlns:dc="http://purl.org/dc/elements/1.1/"
   xmlns:cc="http://creativecommons.org/ns#"
   xmlns:rdf="http://www.w3.org/1999/02/22-rdf-syntax-ns#"
   xmlns:svg="http://www.w3.org/2000/svg"
   xmlns="http://www.w3.org/2000/svg"
   xmlns:sodipodi="http://sodipodi.sourceforge.net/DTD/sodipodi-0.dtd"
   xmlns:inkscape="http://www.inkscape.org/namespaces/inkscape"
   width="744.09448819"
   height="1052.3622047"
   id="svg2"
   version="1.1"
   inkscape:version="0.48.0 r9654"
   sodipodi:docname="New document 1">
  <defs
     id="defs4" />
  <sodipodi:namedview
     id="base"
     pagecolor="#ffffff"
     bordercolor="#666666"
     borderopacity="1.0"
     inkscape:pageopacity="0.0"
     inkscape:pageshadow="2"
     inkscape:zoom="0.42380846"
     inkscape:cx="372.04724"
     inkscape:cy="431.79883"
     inkscape:document-units="px"
     inkscape:current-layer="layer1"
     showgrid="false"
     inkscape:window-width="1171"
     inkscape:window-height="664"
     inkscape:window-x="0"
     inkscape:window-y="0"
     inkscape:window-maximized="0" />
  <metadata
     id="metadata7">
    <rdf:RDF>
      <cc:Work
         rdf:about="">
        <dc:format>image/svg+xml</dc:format>
        <dc:type
           rdf:resource="http://purl.org/dc/dcmitype/StillImage" />
        <dc:title></dc:title>
      </cc:Work>
    </rdf:RDF>
  </metadata>
  <g
     inkscape:label="Layer 1"
     inkscape:groupmode="layer"
     id="layer1">
    <g
       id="g4231">
      <g
         transform="translate(-368.87217,-683.5954)"
         id="g3891">
        <path
           transform="matrix(0.2,0,0,0.2,493.25245,710.86952)"
           d="m 234.28572,692.36218 c 0,23.66935 -19.1878,42.85715 -42.85715,42.85715 -23.66934,0 -42.85714,-19.1878 -42.85714,-42.85715 0,-23.66934 19.1878,-42.85714 42.85714,-42.85714 23.66935,0 42.85715,19.1878 42.85715,42.85714 z"
           sodipodi:ry="42.857143"
           sodipodi:rx="42.857143"
           sodipodi:cy="692.36218"
           sodipodi:cx="191.42857"
           id="path3893"
           style="fill:#008000;stroke:none"
           sodipodi:type="arc" />
        <g
           transform="matrix(0.25,0,0,0.25,444.03817,703.75142)"
           id="g3897">
          <g
             id="g3907">
            <path
               inkscape:connector-curvature="0"
               style="fill:#808080;stroke:#808080;stroke-width:4;stroke-linecap:round;stroke-miterlimit:4;stroke-opacity:1;stroke-dasharray:none;stroke-dashoffset:0"
               d="m 59.48707,319.22154 c 0.6288,54.39079 87.37566,181.21941 214.90625,308.75 5.03452,5.03452 10.06586,10.00166 15.09375,14.90625 C 149.82226,499.7018 63.96166,360.99695 96.29957,328.65904 c 32.33791,-32.33791 171.04276,53.52269 314.21875,193.1875 -4.90459,-5.02789 -9.87173,-10.05923 -14.90625,-15.09375 C 247.21284,358.35356 99.77308,265.18553 66.29957,298.65904 c -4.70721,4.70721 -6.91539,11.66219 -6.8125,20.5625 z m 351.03125,202.625 c 139.66481,143.17599 225.52541,281.88084 193.1875,314.21875 -32.33791,32.3379 -171.04276,-53.52269 -314.21875,-193.1875 4.90459,5.02789 9.87173,10.05923 14.90625,15.09375 148.39923,148.39923 295.83899,241.56726 329.3125,208.09375 33.47351,-33.47351 -59.69452,-180.91327 -208.09375,-329.3125 -5.03452,-5.03452 -10.06586,-10.00166 -15.09375,-14.90625 z"
               id="path3909" />
            <path
               sodipodi:type="arc"
               style="fill:#ff0000;stroke:none"
               id="path3911"
               sodipodi:cx="482.85715"
               sodipodi:cy="363.79074"
               sodipodi:rx="20"
               sodipodi:ry="20"
               d="m 502.85715,363.79074 c 0,11.0457 -8.95431,20 -20,20 -11.0457,0 -20,-8.9543 -20,-20 0,-11.04569 8.9543,-20 20,-20 11.04569,0 20,8.95431 20,20 z"
               transform="matrix(0,-1,1,0,-261.64686,891.65011)" />
            <path
               transform="matrix(0,1,-1,0,961.64683,273.07422)"
               d="m 502.85715,363.79074 c 0,11.0457 -8.95431,20 -20,20 -11.0457,0 -20,-8.9543 -20,-20 0,-11.04569 8.9543,-20 20,-20 11.04569,0 20,8.95431 20,20 z"
               sodipodi:ry="20"
               sodipodi:rx="20"
               sodipodi:cy="363.79074"
               sodipodi:cx="482.85715"
               id="path3913"
               style="fill:#ff0000;stroke:none"
               sodipodi:type="arc" />
          </g>
        </g>
      </g>
      <g
         transform="translate(37.310234,-683.5954)"
         id="g3937">
        <path
           transform="matrix(0.2,0,0,0.2,493.25245,710.86952)"
           d="m 234.28572,692.36218 c 0,23.66935 -19.1878,42.85715 -42.85715,42.85715 -23.66934,0 -42.85714,-19.1878 -42.85714,-42.85715 0,-23.66934 19.1878,-42.85714 42.85714,-42.85714 23.66935,0 42.85715,19.1878 42.85715,42.85714 z"
           sodipodi:ry="42.857143"
           sodipodi:rx="42.857143"
           sodipodi:cy="692.36218"
           sodipodi:cx="191.42857"
           id="path3939"
           style="fill:#008000;stroke:none"
           sodipodi:type="arc" />
        <g
           transform="matrix(0.25,0,0,0.25,444.03817,703.75142)"
           id="g3943">
          <g
             id="g3945">
            <path
               id="path3947"
               d="m 613.14061,291.84925 c -54.39079,0.6288 -181.21941,87.37566 -308.75,214.90625 -5.03452,5.03452 -10.00166,10.06586 -14.90625,15.09375 143.17599,-139.66481 281.88084,-225.52541 314.21875,-193.1875 32.33791,32.33791 -53.52269,171.04276 -193.1875,314.21875 5.02789,-4.90459 10.05923,-9.87173 15.09375,-14.90625 148.39923,-148.39923 241.56726,-295.83899 208.09375,-329.3125 -4.70721,-4.70721 -11.66219,-6.91539 -20.5625,-6.8125 z M 410.51561,642.8805 C 267.33962,782.54531 128.63477,868.40591 96.296859,836.068 63.958954,803.73009 149.81955,665.02524 289.48436,521.84925 c -5.02789,4.90459 -10.05923,9.87173 -15.09375,14.90625 C 125.99138,685.15473 32.823348,832.59449 66.296859,866.068 99.770369,899.54151 247.21013,806.37348 395.60936,657.97425 c 5.03452,-5.03452 10.00166,-10.06586 14.90625,-15.09375 z"
               style="fill:#808080;stroke:#808080;stroke-width:4;stroke-linecap:round;stroke-miterlimit:4;stroke-opacity:1;stroke-dasharray:none;stroke-dashoffset:0"
               inkscape:connector-curvature="0" />
            <path
               transform="translate(40.712038,-29.28468)"
               d="m 502.85715,363.79074 c 0,11.0457 -8.95431,20 -20,20 -11.0457,0 -20,-8.9543 -20,-20 0,-11.04569 8.9543,-20 20,-20 11.04569,0 20,8.95431 20,20 z"
               sodipodi:ry="20"
               sodipodi:rx="20"
               sodipodi:cy="363.79074"
               sodipodi:cx="482.85715"
               id="path3949"
               style="fill:#ff0000;stroke:none"
               sodipodi:type="arc" />
            <path
               sodipodi:type="arc"
               style="fill:#ff0000;stroke:none"
               id="path3951"
               sodipodi:cx="482.85715"
               sodipodi:cy="363.79074"
               sodipodi:rx="20"
               sodipodi:ry="20"
               d="m 502.85715,363.79074 c 0,11.0457 -8.95431,20 -20,20 -11.0457,0 -20,-8.9543 -20,-20 0,-11.04569 8.9543,-20 20,-20 11.04569,0 20,8.95431 20,20 z"
               transform="matrix(-1,0,0,-1,659.28793,1194.009)" />
          </g>
          <g
             id="g3953">
            <path
               inkscape:connector-curvature="0"
               style="fill:#808080;stroke:#808080;stroke-width:4;stroke-linecap:round;stroke-miterlimit:4;stroke-opacity:1;stroke-dasharray:none;stroke-dashoffset:0"
               d="m 59.48707,319.22154 c 0.6288,54.39079 87.37566,181.21941 214.90625,308.75 5.03452,5.03452 10.06586,10.00166 15.09375,14.90625 C 149.82226,499.7018 63.96166,360.99695 96.29957,328.65904 c 32.33791,-32.33791 171.04276,53.52269 314.21875,193.1875 -4.90459,-5.02789 -9.87173,-10.05923 -14.90625,-15.09375 C 247.21284,358.35356 99.77308,265.18553 66.29957,298.65904 c -4.70721,4.70721 -6.91539,11.66219 -6.8125,20.5625 z m 351.03125,202.625 c 139.66481,143.17599 225.52541,281.88084 193.1875,314.21875 -32.33791,32.3379 -171.04276,-53.52269 -314.21875,-193.1875 4.90459,5.02789 9.87173,10.05923 14.90625,15.09375 148.39923,148.39923 295.83899,241.56726 329.3125,208.09375 33.47351,-33.47351 -59.69452,-180.91327 -208.09375,-329.3125 -5.03452,-5.03452 -10.06586,-10.00166 -15.09375,-14.90625 z"
               id="path3955" />
            <path
               sodipodi:type="arc"
               style="fill:#ff0000;stroke:none"
               id="path3957"
               sodipodi:cx="482.85715"
               sodipodi:cy="363.79074"
               sodipodi:rx="20"
               sodipodi:ry="20"
               d="m 502.85715,363.79074 c 0,11.0457 -8.95431,20 -20,20 -11.0457,0 -20,-8.9543 -20,-20 0,-11.04569 8.9543,-20 20,-20 11.04569,0 20,8.95431 20,20 z"
               transform="matrix(0,-1,1,0,-261.64686,891.65011)" />
            <path
               transform="matrix(0,1,-1,0,961.64683,273.07422)"
               d="m 502.85715,363.79074 c 0,11.0457 -8.95431,20 -20,20 -11.0457,0 -20,-8.9543 -20,-20 0,-11.04569 8.9543,-20 20,-20 11.04569,0 20,8.95431 20,20 z"
               sodipodi:ry="20"
               sodipodi:rx="20"
               sodipodi:cy="363.79074"
               sodipodi:cx="482.85715"
               id="path3959"
               style="fill:#ff0000;stroke:none"
               sodipodi:type="arc" />
          </g>
        </g>
      </g>
    </g>
    <g
       id="g4214"
       transform="translate(11.797782,33.03379)">
      <path
         transform="matrix(0.2,0,0,0.2,323.79674,208.12055)"
         d="m 234.28572,692.36218 c 0,23.66935 -19.1878,42.85715 -42.85715,42.85715 -23.66934,0 -42.85714,-19.1878 -42.85714,-42.85715 0,-23.66934 19.1878,-42.85714 42.85714,-42.85714 23.66935,0 42.85715,19.1878 42.85715,42.85714 z"
         sodipodi:ry="42.857143"
         sodipodi:rx="42.857143"
         sodipodi:cy="692.36218"
         sodipodi:cx="191.42857"
         id="path4029"
         style="fill:#008000;stroke:none"
         sodipodi:type="arc" />
      <g
         transform="matrix(0.25,0,0,0.25,274.58246,201.00245)"
         id="g4031">
        <g
           id="g4033">
          <path
             id="path4035"
             d="m 613.14061,291.84925 c -54.39079,0.6288 -181.21941,87.37566 -308.75,214.90625 -5.03452,5.03452 -10.00166,10.06586 -14.90625,15.09375 143.17599,-139.66481 281.88084,-225.52541 314.21875,-193.1875 32.33791,32.33791 -53.52269,171.04276 -193.1875,314.21875 5.02789,-4.90459 10.05923,-9.87173 15.09375,-14.90625 148.39923,-148.39923 241.56726,-295.83899 208.09375,-329.3125 -4.70721,-4.70721 -11.66219,-6.91539 -20.5625,-6.8125 z M 410.51561,642.8805 C 267.33962,782.54531 128.63477,868.40591 96.296859,836.068 63.958954,803.73009 149.81955,665.02524 289.48436,521.84925 c -5.02789,4.90459 -10.05923,9.87173 -15.09375,14.90625 C 125.99138,685.15473 32.823348,832.59449 66.296859,866.068 99.770369,899.54151 247.21013,806.37348 395.60936,657.97425 c 5.03452,-5.03452 10.00166,-10.06586 14.90625,-15.09375 z"
             style="fill:#808080;stroke:#808080;stroke-width:4;stroke-linecap:round;stroke-miterlimit:4;stroke-opacity:1;stroke-dasharray:none;stroke-dashoffset:0"
             inkscape:connector-curvature="0" />
          <path
             transform="translate(40.712038,-29.28468)"
             d="m 502.85715,363.79074 c 0,11.0457 -8.95431,20 -20,20 -11.0457,0 -20,-8.9543 -20,-20 0,-11.04569 8.9543,-20 20,-20 11.04569,0 20,8.95431 20,20 z"
             sodipodi:ry="20"
             sodipodi:rx="20"
             sodipodi:cy="363.79074"
             sodipodi:cx="482.85715"
             id="path4037"
             style="fill:#ff0000;stroke:none"
             sodipodi:type="arc" />
          <path
             sodipodi:type="arc"
             style="fill:#ff0000;stroke:none"
             id="path4039"
             sodipodi:cx="482.85715"
             sodipodi:cy="363.79074"
             sodipodi:rx="20"
             sodipodi:ry="20"
             d="m 502.85715,363.79074 c 0,11.0457 -8.95431,20 -20,20 -11.0457,0 -20,-8.9543 -20,-20 0,-11.04569 8.9543,-20 20,-20 11.04569,0 20,8.95431 20,20 z"
             transform="matrix(-1,0,0,-1,659.28793,1194.009)" />
        </g>
        <g
           id="g4041">
          <path
             inkscape:connector-curvature="0"
             style="fill:#808080;stroke:#808080;stroke-width:4;stroke-linecap:round;stroke-miterlimit:4;stroke-opacity:1;stroke-dasharray:none;stroke-dashoffset:0"
             d="m 59.48707,319.22154 c 0.6288,54.39079 87.37566,181.21941 214.90625,308.75 5.03452,5.03452 10.06586,10.00166 15.09375,14.90625 C 149.82226,499.7018 63.96166,360.99695 96.29957,328.65904 c 32.33791,-32.33791 171.04276,53.52269 314.21875,193.1875 -4.90459,-5.02789 -9.87173,-10.05923 -14.90625,-15.09375 C 247.21284,358.35356 99.77308,265.18553 66.29957,298.65904 c -4.70721,4.70721 -6.91539,11.66219 -6.8125,20.5625 z m 351.03125,202.625 c 139.66481,143.17599 225.52541,281.88084 193.1875,314.21875 -32.33791,32.3379 -171.04276,-53.52269 -314.21875,-193.1875 4.90459,5.02789 9.87173,10.05923 14.90625,15.09375 148.39923,148.39923 295.83899,241.56726 329.3125,208.09375 33.47351,-33.47351 -59.69452,-180.91327 -208.09375,-329.3125 -5.03452,-5.03452 -10.06586,-10.00166 -15.09375,-14.90625 z"
             id="path4043" />
          <path
             sodipodi:type="arc"
             style="fill:#ff0000;stroke:none"
             id="path4045"
             sodipodi:cx="482.85715"
             sodipodi:cy="363.79074"
             sodipodi:rx="20"
             sodipodi:ry="20"
             d="m 502.85715,363.79074 c 0,11.0457 -8.95431,20 -20,20 -11.0457,0 -20,-8.9543 -20,-20 0,-11.04569 8.9543,-20 20,-20 11.04569,0 20,8.95431 20,20 z"
             transform="matrix(0,-1,1,0,-261.64686,891.65011)" />
          <path
             transform="matrix(0,1,-1,0,961.64683,273.07422)"
             d="m 502.85715,363.79074 c 0,11.0457 -8.95431,20 -20,20 -11.0457,0 -20,-8.9543 -20,-20 0,-11.04569 8.9543,-20 20,-20 11.04569,0 20,8.95431 20,20 z"
             sodipodi:ry="20"
             sodipodi:rx="20"
             sodipodi:cy="363.79074"
             sodipodi:cx="482.85715"
             id="path4047"
             style="fill:#ff0000;stroke:none"
             sodipodi:type="arc" />
        </g>
      </g>
      <g
         transform="matrix(0.1767767,-0.1767767,0.1767767,0.1767767,197.26208,305.51629)"
         id="g4049">
        <g
           id="g4051">
          <path
             inkscape:connector-curvature="0"
             style="fill:#808080;stroke:#808080;stroke-width:4;stroke-linecap:round;stroke-miterlimit:4;stroke-opacity:1;stroke-dasharray:none;stroke-dashoffset:0"
             d="m 613.14061,291.84925 c -54.39079,0.6288 -181.21941,87.37566 -308.75,214.90625 -5.03452,5.03452 -10.00166,10.06586 -14.90625,15.09375 143.17599,-139.66481 281.88084,-225.52541 314.21875,-193.1875 32.33791,32.33791 -53.52269,171.04276 -193.1875,314.21875 5.02789,-4.90459 10.05923,-9.87173 15.09375,-14.90625 148.39923,-148.39923 241.56726,-295.83899 208.09375,-329.3125 -4.70721,-4.70721 -11.66219,-6.91539 -20.5625,-6.8125 z M 410.51561,642.8805 C 267.33962,782.54531 128.63477,868.40591 96.296859,836.068 63.958954,803.73009 149.81955,665.02524 289.48436,521.84925 c -5.02789,4.90459 -10.05923,9.87173 -15.09375,14.90625 C 125.99138,685.15473 32.823348,832.59449 66.296859,866.068 99.770369,899.54151 247.21013,806.37348 395.60936,657.97425 c 5.03452,-5.03452 10.00166,-10.06586 14.90625,-15.09375 z"
             id="path4053" />
          <path
             sodipodi:type="arc"
             style="fill:#ff0000;stroke:none"
             id="path4055"
             sodipodi:cx="482.85715"
             sodipodi:cy="363.79074"
             sodipodi:rx="20"
             sodipodi:ry="20"
             d="m 502.85715,363.79074 c 0,11.0457 -8.95431,20 -20,20 -11.0457,0 -20,-8.9543 -20,-20 0,-11.04569 8.9543,-20 20,-20 11.04569,0 20,8.95431 20,20 z"
             transform="translate(40.712038,-29.28468)" />
          <path
             transform="matrix(-1,0,0,-1,659.28793,1194.009)"
             d="m 502.85715,363.79074 c 0,11.0457 -8.95431,20 -20,20 -11.0457,0 -20,-8.9543 -20,-20 0,-11.04569 8.9543,-20 20,-20 11.04569,0 20,8.95431 20,20 z"
             sodipodi:ry="20"
             sodipodi:rx="20"
             sodipodi:cy="363.79074"
             sodipodi:cx="482.85715"
             id="path4057"
             style="fill:#ff0000;stroke:none"
             sodipodi:type="arc" />
        </g>
      </g>
    </g>
    <g
       id="g4251"
       transform="translate(0,26)">
      <g
         transform="translate(-412.78467,197.62558)"
         id="g4193">
        <path
           transform="matrix(0.2,0,0,0.2,537.16494,204.80115)"
           d="m 234.28572,692.36218 c 0,23.66935 -19.1878,42.85715 -42.85715,42.85715 -23.66934,0 -42.85714,-19.1878 -42.85714,-42.85715 0,-23.66934 19.1878,-42.85714 42.85714,-42.85714 23.66935,0 42.85715,19.1878 42.85715,42.85714 z"
           sodipodi:ry="42.857143"
           sodipodi:rx="42.857143"
           sodipodi:cy="692.36218"
           sodipodi:cx="191.42857"
           id="path3985"
           style="fill:#008000;stroke:none"
           sodipodi:type="arc" />
        <g
           transform="matrix(0.25,0,0,0.25,487.95066,197.68305)"
           id="g3989">
          <g
             id="g3991">
            <path
               id="path3993"
               d="m 613.14061,291.84925 c -54.39079,0.6288 -181.21941,87.37566 -308.75,214.90625 -5.03452,5.03452 -10.00166,10.06586 -14.90625,15.09375 143.17599,-139.66481 281.88084,-225.52541 314.21875,-193.1875 32.33791,32.33791 -53.52269,171.04276 -193.1875,314.21875 5.02789,-4.90459 10.05923,-9.87173 15.09375,-14.90625 148.39923,-148.39923 241.56726,-295.83899 208.09375,-329.3125 -4.70721,-4.70721 -11.66219,-6.91539 -20.5625,-6.8125 z M 410.51561,642.8805 C 267.33962,782.54531 128.63477,868.40591 96.296859,836.068 63.958954,803.73009 149.81955,665.02524 289.48436,521.84925 c -5.02789,4.90459 -10.05923,9.87173 -15.09375,14.90625 C 125.99138,685.15473 32.823348,832.59449 66.296859,866.068 99.770369,899.54151 247.21013,806.37348 395.60936,657.97425 c 5.03452,-5.03452 10.00166,-10.06586 14.90625,-15.09375 z"
               style="fill:#808080;stroke:#808080;stroke-width:4;stroke-linecap:round;stroke-miterlimit:4;stroke-opacity:1;stroke-dasharray:none;stroke-dashoffset:0"
               inkscape:connector-curvature="0" />
            <path
               transform="translate(40.712038,-29.28468)"
               d="m 502.85715,363.79074 c 0,11.0457 -8.95431,20 -20,20 -11.0457,0 -20,-8.9543 -20,-20 0,-11.04569 8.9543,-20 20,-20 11.04569,0 20,8.95431 20,20 z"
               sodipodi:ry="20"
               sodipodi:rx="20"
               sodipodi:cy="363.79074"
               sodipodi:cx="482.85715"
               id="path3995"
               style="fill:#ff0000;stroke:none"
               sodipodi:type="arc" />
            <path
               sodipodi:type="arc"
               style="fill:#ff0000;stroke:none"
               id="path3997"
               sodipodi:cx="482.85715"
               sodipodi:cy="363.79074"
               sodipodi:rx="20"
               sodipodi:ry="20"
               d="m 502.85715,363.79074 c 0,11.0457 -8.95431,20 -20,20 -11.0457,0 -20,-8.9543 -20,-20 0,-11.04569 8.9543,-20 20,-20 11.04569,0 20,8.95431 20,20 z"
               transform="matrix(-1,0,0,-1,659.28793,1194.009)" />
          </g>
          <g
             id="g3999">
            <path
               inkscape:connector-curvature="0"
               style="fill:#808080;stroke:#808080;stroke-width:4;stroke-linecap:round;stroke-miterlimit:4;stroke-opacity:1;stroke-dasharray:none;stroke-dashoffset:0"
               d="m 59.48707,319.22154 c 0.6288,54.39079 87.37566,181.21941 214.90625,308.75 5.03452,5.03452 10.06586,10.00166 15.09375,14.90625 C 149.82226,499.7018 63.96166,360.99695 96.29957,328.65904 c 32.33791,-32.33791 171.04276,53.52269 314.21875,193.1875 -4.90459,-5.02789 -9.87173,-10.05923 -14.90625,-15.09375 C 247.21284,358.35356 99.77308,265.18553 66.29957,298.65904 c -4.70721,4.70721 -6.91539,11.66219 -6.8125,20.5625 z m 351.03125,202.625 c 139.66481,143.17599 225.52541,281.88084 193.1875,314.21875 -32.33791,32.3379 -171.04276,-53.52269 -314.21875,-193.1875 4.90459,5.02789 9.87173,10.05923 14.90625,15.09375 148.39923,148.39923 295.83899,241.56726 329.3125,208.09375 33.47351,-33.47351 -59.69452,-180.91327 -208.09375,-329.3125 -5.03452,-5.03452 -10.06586,-10.00166 -15.09375,-14.90625 z"
               id="path4001" />
            <path
               sodipodi:type="arc"
               style="fill:#ff0000;stroke:none"
               id="path4003"
               sodipodi:cx="482.85715"
               sodipodi:cy="363.79074"
               sodipodi:rx="20"
               sodipodi:ry="20"
               d="m 502.85715,363.79074 c 0,11.0457 -8.95431,20 -20,20 -11.0457,0 -20,-8.9543 -20,-20 0,-11.04569 8.9543,-20 20,-20 11.04569,0 20,8.95431 20,20 z"
               transform="matrix(0,-1,1,0,-261.64686,891.65011)" />
            <path
               transform="matrix(0,1,-1,0,961.64683,273.07422)"
               d="m 502.85715,363.79074 c 0,11.0457 -8.95431,20 -20,20 -11.0457,0 -20,-8.9543 -20,-20 0,-11.04569 8.9543,-20 20,-20 11.04569,0 20,8.95431 20,20 z"
               sodipodi:ry="20"
               sodipodi:rx="20"
               sodipodi:cy="363.79074"
               sodipodi:cx="482.85715"
               id="path4005"
               style="fill:#ff0000;stroke:none"
               sodipodi:type="arc" />
          </g>
        </g>
        <g
           transform="matrix(0.1767767,-0.1767767,0.1767767,0.1767767,410.63028,302.19689)"
           id="g4007">
          <g
             id="g4009">
            <path
               inkscape:connector-curvature="0"
               style="fill:#808080;stroke:#808080;stroke-width:4;stroke-linecap:round;stroke-miterlimit:4;stroke-opacity:1;stroke-dasharray:none;stroke-dashoffset:0"
               d="m 613.14061,291.84925 c -54.39079,0.6288 -181.21941,87.37566 -308.75,214.90625 -5.03452,5.03452 -10.00166,10.06586 -14.90625,15.09375 143.17599,-139.66481 281.88084,-225.52541 314.21875,-193.1875 32.33791,32.33791 -53.52269,171.04276 -193.1875,314.21875 5.02789,-4.90459 10.05923,-9.87173 15.09375,-14.90625 148.39923,-148.39923 241.56726,-295.83899 208.09375,-329.3125 -4.70721,-4.70721 -11.66219,-6.91539 -20.5625,-6.8125 z M 410.51561,642.8805 C 267.33962,782.54531 128.63477,868.40591 96.296859,836.068 63.958954,803.73009 149.81955,665.02524 289.48436,521.84925 c -5.02789,4.90459 -10.05923,9.87173 -15.09375,14.90625 C 125.99138,685.15473 32.823348,832.59449 66.296859,866.068 99.770369,899.54151 247.21013,806.37348 395.60936,657.97425 c 5.03452,-5.03452 10.00166,-10.06586 14.90625,-15.09375 z"
               id="path4011" />
            <path
               sodipodi:type="arc"
               style="fill:#ff0000;stroke:none"
               id="path4013"
               sodipodi:cx="482.85715"
               sodipodi:cy="363.79074"
               sodipodi:rx="20"
               sodipodi:ry="20"
               d="m 502.85715,363.79074 c 0,11.0457 -8.95431,20 -20,20 -11.0457,0 -20,-8.9543 -20,-20 0,-11.04569 8.9543,-20 20,-20 11.04569,0 20,8.95431 20,20 z"
               transform="translate(40.712038,-29.28468)" />
            <path
               transform="matrix(-1,0,0,-1,659.28793,1194.009)"
               d="m 502.85715,363.79074 c 0,11.0457 -8.95431,20 -20,20 -11.0457,0 -20,-8.9543 -20,-20 0,-11.04569 8.9543,-20 20,-20 11.04569,0 20,8.95431 20,20 z"
               sodipodi:ry="20"
               sodipodi:rx="20"
               sodipodi:cy="363.79074"
               sodipodi:cx="482.85715"
               id="path4015"
               style="fill:#ff0000;stroke:none"
               sodipodi:type="arc" />
          </g>
          <g
             id="g4017">
            <path
               id="path4019"
               d="m 59.48707,319.22154 c 0.6288,54.39079 87.37566,181.21941 214.90625,308.75 5.03452,5.03452 10.06586,10.00166 15.09375,14.90625 C 149.82226,499.7018 63.96166,360.99695 96.29957,328.65904 c 32.33791,-32.33791 171.04276,53.52269 314.21875,193.1875 -4.90459,-5.02789 -9.87173,-10.05923 -14.90625,-15.09375 C 247.21284,358.35356 99.77308,265.18553 66.29957,298.65904 c -4.70721,4.70721 -6.91539,11.66219 -6.8125,20.5625 z m 351.03125,202.625 c 139.66481,143.17599 225.52541,281.88084 193.1875,314.21875 -32.33791,32.3379 -171.04276,-53.52269 -314.21875,-193.1875 4.90459,5.02789 9.87173,10.05923 14.90625,15.09375 148.39923,148.39923 295.83899,241.56726 329.3125,208.09375 33.47351,-33.47351 -59.69452,-180.91327 -208.09375,-329.3125 -5.03452,-5.03452 -10.06586,-10.00166 -15.09375,-14.90625 z"
               style="fill:#808080;stroke:#808080;stroke-width:4;stroke-linecap:round;stroke-miterlimit:4;stroke-opacity:1;stroke-dasharray:none;stroke-dashoffset:0"
               inkscape:connector-curvature="0" />
            <path
               transform="matrix(0,-1,1,0,-261.64686,891.65011)"
               d="m 502.85715,363.79074 c 0,11.0457 -8.95431,20 -20,20 -11.0457,0 -20,-8.9543 -20,-20 0,-11.04569 8.9543,-20 20,-20 11.04569,0 20,8.95431 20,20 z"
               sodipodi:ry="20"
               sodipodi:rx="20"
               sodipodi:cy="363.79074"
               sodipodi:cx="482.85715"
               id="path4021"
               style="fill:#ff0000;stroke:none"
               sodipodi:type="arc" />
            <path
               sodipodi:type="arc"
               style="fill:#ff0000;stroke:none"
               id="path4023"
               sodipodi:cx="482.85715"
               sodipodi:cy="363.79074"
               sodipodi:rx="20"
               sodipodi:ry="20"
               d="m 502.85715,363.79074 c 0,11.0457 -8.95431,20 -20,20 -11.0457,0 -20,-8.9543 -20,-20 0,-11.04569 8.9543,-20 20,-20 11.04569,0 20,8.95431 20,20 z"
               transform="matrix(0,1,-1,0,961.64683,273.07422)" />
          </g>
        </g>
      </g>
      <g
         transform="translate(37.310227,-308.44279)"
         id="g4067">
        <path
           transform="matrix(0.2,0,0,0.2,493.25245,710.86952)"
           d="m 234.28572,692.36218 c 0,23.66935 -19.1878,42.85715 -42.85715,42.85715 -23.66934,0 -42.85714,-19.1878 -42.85714,-42.85715 0,-23.66934 19.1878,-42.85714 42.85714,-42.85714 23.66935,0 42.85715,19.1878 42.85715,42.85714 z"
           sodipodi:ry="42.857143"
           sodipodi:rx="42.857143"
           sodipodi:cy="692.36218"
           sodipodi:cx="191.42857"
           id="path4069"
           style="fill:#008000;stroke:none"
           sodipodi:type="arc" />
        <path
           transform="matrix(0.23329621,0,0,0.23329621,418.55614,716.14531)"
           d="m 608.57142,570.93359 c 0,68.64111 -55.64461,124.28572 -124.28571,124.28572 -68.64111,0 -124.28572,-55.64461 -124.28572,-124.28572 0,-68.6411 55.64461,-124.28571 124.28572,-124.28571 68.6411,0 124.28571,55.64461 124.28571,124.28571 z"
           sodipodi:ry="124.28571"
           sodipodi:rx="124.28571"
           sodipodi:cy="570.93359"
           sodipodi:cx="484.28571"
           id="path4071"
           style="fill:none;stroke:#808080;stroke-width:8.57279205;stroke-miterlimit:4;stroke-dasharray:none"
           sodipodi:type="arc" />
        <g
           transform="matrix(0.25,0,0,0.25,444.03817,703.75142)"
           id="g4073">
          <g
             id="g4075">
            <path
               id="path4077"
               d="m 613.14061,291.84925 c -54.39079,0.6288 -181.21941,87.37566 -308.75,214.90625 -5.03452,5.03452 -10.00166,10.06586 -14.90625,15.09375 143.17599,-139.66481 281.88084,-225.52541 314.21875,-193.1875 32.33791,32.33791 -53.52269,171.04276 -193.1875,314.21875 5.02789,-4.90459 10.05923,-9.87173 15.09375,-14.90625 148.39923,-148.39923 241.56726,-295.83899 208.09375,-329.3125 -4.70721,-4.70721 -11.66219,-6.91539 -20.5625,-6.8125 z M 410.51561,642.8805 C 267.33962,782.54531 128.63477,868.40591 96.296859,836.068 63.958954,803.73009 149.81955,665.02524 289.48436,521.84925 c -5.02789,4.90459 -10.05923,9.87173 -15.09375,14.90625 C 125.99138,685.15473 32.823348,832.59449 66.296859,866.068 99.770369,899.54151 247.21013,806.37348 395.60936,657.97425 c 5.03452,-5.03452 10.00166,-10.06586 14.90625,-15.09375 z"
               style="fill:#808080;stroke:#808080;stroke-width:4;stroke-linecap:round;stroke-miterlimit:4;stroke-opacity:1;stroke-dasharray:none;stroke-dashoffset:0"
               inkscape:connector-curvature="0" />
            <path
               transform="translate(40.712038,-29.28468)"
               d="m 502.85715,363.79074 c 0,11.0457 -8.95431,20 -20,20 -11.0457,0 -20,-8.9543 -20,-20 0,-11.04569 8.9543,-20 20,-20 11.04569,0 20,8.95431 20,20 z"
               sodipodi:ry="20"
               sodipodi:rx="20"
               sodipodi:cy="363.79074"
               sodipodi:cx="482.85715"
               id="path4079"
               style="fill:#ff0000;stroke:none"
               sodipodi:type="arc" />
            <path
               sodipodi:type="arc"
               style="fill:#ff0000;stroke:none"
               id="path4081"
               sodipodi:cx="482.85715"
               sodipodi:cy="363.79074"
               sodipodi:rx="20"
               sodipodi:ry="20"
               d="m 502.85715,363.79074 c 0,11.0457 -8.95431,20 -20,20 -11.0457,0 -20,-8.9543 -20,-20 0,-11.04569 8.9543,-20 20,-20 11.04569,0 20,8.95431 20,20 z"
               transform="matrix(-1,0,0,-1,659.28793,1194.009)" />
          </g>
          <g
             id="g4083">
            <path
               inkscape:connector-curvature="0"
               style="fill:#808080;stroke:#808080;stroke-width:4;stroke-linecap:round;stroke-miterlimit:4;stroke-opacity:1;stroke-dasharray:none;stroke-dashoffset:0"
               d="m 59.48707,319.22154 c 0.6288,54.39079 87.37566,181.21941 214.90625,308.75 5.03452,5.03452 10.06586,10.00166 15.09375,14.90625 C 149.82226,499.7018 63.96166,360.99695 96.29957,328.65904 c 32.33791,-32.33791 171.04276,53.52269 314.21875,193.1875 -4.90459,-5.02789 -9.87173,-10.05923 -14.90625,-15.09375 C 247.21284,358.35356 99.77308,265.18553 66.29957,298.65904 c -4.70721,4.70721 -6.91539,11.66219 -6.8125,20.5625 z m 351.03125,202.625 c 139.66481,143.17599 225.52541,281.88084 193.1875,314.21875 -32.33791,32.3379 -171.04276,-53.52269 -314.21875,-193.1875 4.90459,5.02789 9.87173,10.05923 14.90625,15.09375 148.39923,148.39923 295.83899,241.56726 329.3125,208.09375 33.47351,-33.47351 -59.69452,-180.91327 -208.09375,-329.3125 -5.03452,-5.03452 -10.06586,-10.00166 -15.09375,-14.90625 z"
               id="path4085" />
            <path
               sodipodi:type="arc"
               style="fill:#ff0000;stroke:none"
               id="path4087"
               sodipodi:cx="482.85715"
               sodipodi:cy="363.79074"
               sodipodi:rx="20"
               sodipodi:ry="20"
               d="m 502.85715,363.79074 c 0,11.0457 -8.95431,20 -20,20 -11.0457,0 -20,-8.9543 -20,-20 0,-11.04569 8.9543,-20 20,-20 11.04569,0 20,8.95431 20,20 z"
               transform="matrix(0,-1,1,0,-261.64686,891.65011)" />
            <path
               transform="matrix(0,1,-1,0,961.64683,273.07422)"
               d="m 502.85715,363.79074 c 0,11.0457 -8.95431,20 -20,20 -11.0457,0 -20,-8.9543 -20,-20 0,-11.04569 8.9543,-20 20,-20 11.04569,0 20,8.95431 20,20 z"
               sodipodi:ry="20"
               sodipodi:rx="20"
               sodipodi:cy="363.79074"
               sodipodi:cx="482.85715"
               id="path4089"
               style="fill:#ff0000;stroke:none"
               sodipodi:type="arc" />
          </g>
        </g>
        <g
           transform="matrix(0.1767767,-0.1767767,0.1767767,0.1767767,366.71779,808.26526)"
           id="g4091">
          <g
             id="g4093">
            <path
               inkscape:connector-curvature="0"
               style="fill:#808080;stroke:#808080;stroke-width:4;stroke-linecap:round;stroke-miterlimit:4;stroke-opacity:1;stroke-dasharray:none;stroke-dashoffset:0"
               d="m 613.14061,291.84925 c -54.39079,0.6288 -181.21941,87.37566 -308.75,214.90625 -5.03452,5.03452 -10.00166,10.06586 -14.90625,15.09375 143.17599,-139.66481 281.88084,-225.52541 314.21875,-193.1875 32.33791,32.33791 -53.52269,171.04276 -193.1875,314.21875 5.02789,-4.90459 10.05923,-9.87173 15.09375,-14.90625 148.39923,-148.39923 241.56726,-295.83899 208.09375,-329.3125 -4.70721,-4.70721 -11.66219,-6.91539 -20.5625,-6.8125 z M 410.51561,642.8805 C 267.33962,782.54531 128.63477,868.40591 96.296859,836.068 63.958954,803.73009 149.81955,665.02524 289.48436,521.84925 c -5.02789,4.90459 -10.05923,9.87173 -15.09375,14.90625 C 125.99138,685.15473 32.823348,832.59449 66.296859,866.068 99.770369,899.54151 247.21013,806.37348 395.60936,657.97425 c 5.03452,-5.03452 10.00166,-10.06586 14.90625,-15.09375 z"
               id="path4095" />
            <path
               sodipodi:type="arc"
               style="fill:#ff0000;stroke:none"
               id="path4097"
               sodipodi:cx="482.85715"
               sodipodi:cy="363.79074"
               sodipodi:rx="20"
               sodipodi:ry="20"
               d="m 502.85715,363.79074 c 0,11.0457 -8.95431,20 -20,20 -11.0457,0 -20,-8.9543 -20,-20 0,-11.04569 8.9543,-20 20,-20 11.04569,0 20,8.95431 20,20 z"
               transform="translate(40.712038,-29.28468)" />
            <path
               transform="matrix(-1,0,0,-1,659.28793,1194.009)"
               d="m 502.85715,363.79074 c 0,11.0457 -8.95431,20 -20,20 -11.0457,0 -20,-8.9543 -20,-20 0,-11.04569 8.9543,-20 20,-20 11.04569,0 20,8.95431 20,20 z"
               sodipodi:ry="20"
               sodipodi:rx="20"
               sodipodi:cy="363.79074"
               sodipodi:cx="482.85715"
               id="path4099"
               style="fill:#ff0000;stroke:none"
               sodipodi:type="arc" />
          </g>
          <g
             id="g4101">
            <path
               id="path4103"
               d="m 59.48707,319.22154 c 0.6288,54.39079 87.37566,181.21941 214.90625,308.75 5.03452,5.03452 10.06586,10.00166 15.09375,14.90625 C 149.82226,499.7018 63.96166,360.99695 96.29957,328.65904 c 32.33791,-32.33791 171.04276,53.52269 314.21875,193.1875 -4.90459,-5.02789 -9.87173,-10.05923 -14.90625,-15.09375 C 247.21284,358.35356 99.77308,265.18553 66.29957,298.65904 c -4.70721,4.70721 -6.91539,11.66219 -6.8125,20.5625 z m 351.03125,202.625 c 139.66481,143.17599 225.52541,281.88084 193.1875,314.21875 -32.33791,32.3379 -171.04276,-53.52269 -314.21875,-193.1875 4.90459,5.02789 9.87173,10.05923 14.90625,15.09375 148.39923,148.39923 295.83899,241.56726 329.3125,208.09375 33.47351,-33.47351 -59.69452,-180.91327 -208.09375,-329.3125 -5.03452,-5.03452 -10.06586,-10.00166 -15.09375,-14.90625 z"
               style="fill:#808080;stroke:#808080;stroke-width:4;stroke-linecap:round;stroke-miterlimit:4;stroke-opacity:1;stroke-dasharray:none;stroke-dashoffset:0"
               inkscape:connector-curvature="0" />
            <path
               transform="matrix(0,-1,1,0,-261.64686,891.65011)"
               d="m 502.85715,363.79074 c 0,11.0457 -8.95431,20 -20,20 -11.0457,0 -20,-8.9543 -20,-20 0,-11.04569 8.9543,-20 20,-20 11.04569,0 20,8.95431 20,20 z"
               sodipodi:ry="20"
               sodipodi:rx="20"
               sodipodi:cy="363.79074"
               sodipodi:cx="482.85715"
               id="path4105"
               style="fill:#ff0000;stroke:none"
               sodipodi:type="arc" />
            <path
               sodipodi:type="arc"
               style="fill:#ff0000;stroke:none"
               id="path4107"
               sodipodi:cx="482.85715"
               sodipodi:cy="363.79074"
               sodipodi:rx="20"
               sodipodi:ry="20"
               d="m 502.85715,363.79074 c 0,11.0457 -8.95431,20 -20,20 -11.0457,0 -20,-8.9543 -20,-20 0,-11.04569 8.9543,-20 20,-20 11.04569,0 20,8.95431 20,20 z"
               transform="matrix(0,1,-1,0,961.64683,273.07422)" />
          </g>
        </g>
      </g>
    </g>
    <g
       id="g4294">
      <g
         transform="translate(37.310227,0.76028524)"
         id="g3867">
        <path
           sodipodi:type="arc"
           style="fill:#008000;stroke:none"
           id="path2987"
           sodipodi:cx="191.42857"
           sodipodi:cy="692.36218"
           sodipodi:rx="42.857143"
           sodipodi:ry="42.857143"
           d="m 234.28572,692.36218 c 0,23.66935 -19.1878,42.85715 -42.85715,42.85715 -23.66934,0 -42.85714,-19.1878 -42.85714,-42.85715 0,-23.66934 19.1878,-42.85714 42.85714,-42.85714 23.66935,0 42.85715,19.1878 42.85715,42.85714 z"
           transform="matrix(0.2,0,0,0.2,493.25245,710.86952)" />
        <path
           sodipodi:type="arc"
           style="fill:none;stroke:#808080;stroke-width:8.57279205;stroke-miterlimit:4;stroke-dasharray:none"
           id="path3783"
           sodipodi:cx="484.28571"
           sodipodi:cy="570.93359"
           sodipodi:rx="124.28571"
           sodipodi:ry="124.28571"
           d="m 608.57142,570.93359 c 0,68.64111 -55.64461,124.28572 -124.28571,124.28572 -68.64111,0 -124.28572,-55.64461 -124.28572,-124.28572 0,-68.6411 55.64461,-124.28571 124.28572,-124.28571 68.6411,0 124.28571,55.64461 124.28571,124.28571 z"
           transform="matrix(0.23329621,0,0,0.23329621,418.55614,716.14531)" />
        <g
           id="g3835"
           transform="matrix(0.25,0,0,0.25,444.03817,703.75142)">
          <g
             id="g3830">
            <path
               inkscape:connector-curvature="0"
               style="fill:#808080;stroke:#808080;stroke-width:4;stroke-linecap:round;stroke-miterlimit:4;stroke-opacity:1;stroke-dasharray:none;stroke-dashoffset:0"
               d="m 613.14061,291.84925 c -54.39079,0.6288 -181.21941,87.37566 -308.75,214.90625 -5.03452,5.03452 -10.00166,10.06586 -14.90625,15.09375 143.17599,-139.66481 281.88084,-225.52541 314.21875,-193.1875 32.33791,32.33791 -53.52269,171.04276 -193.1875,314.21875 5.02789,-4.90459 10.05923,-9.87173 15.09375,-14.90625 148.39923,-148.39923 241.56726,-295.83899 208.09375,-329.3125 -4.70721,-4.70721 -11.66219,-6.91539 -20.5625,-6.8125 z M 410.51561,642.8805 C 267.33962,782.54531 128.63477,868.40591 96.296859,836.068 63.958954,803.73009 149.81955,665.02524 289.48436,521.84925 c -5.02789,4.90459 -10.05923,9.87173 -15.09375,14.90625 C 125.99138,685.15473 32.823348,832.59449 66.296859,866.068 99.770369,899.54151 247.21013,806.37348 395.60936,657.97425 c 5.03452,-5.03452 10.00166,-10.06586 14.90625,-15.09375 z"
               id="path2994" />
            <path
               sodipodi:type="arc"
               style="fill:#ff0000;stroke:none"
               id="path3000"
               sodipodi:cx="482.85715"
               sodipodi:cy="363.79074"
               sodipodi:rx="20"
               sodipodi:ry="20"
               d="m 502.85715,363.79074 c 0,11.0457 -8.95431,20 -20,20 -11.0457,0 -20,-8.9543 -20,-20 0,-11.04569 8.9543,-20 20,-20 11.04569,0 20,8.95431 20,20 z"
               transform="translate(40.712038,-29.28468)" />
            <path
               transform="matrix(-1,0,0,-1,659.28793,1194.009)"
               d="m 502.85715,363.79074 c 0,11.0457 -8.95431,20 -20,20 -11.0457,0 -20,-8.9543 -20,-20 0,-11.04569 8.9543,-20 20,-20 11.04569,0 20,8.95431 20,20 z"
               sodipodi:ry="20"
               sodipodi:rx="20"
               sodipodi:cy="363.79074"
               sodipodi:cx="482.85715"
               id="path3809"
               style="fill:#ff0000;stroke:none"
               sodipodi:type="arc" />
          </g>
          <g
             id="g3823">
            <path
               id="path3779"
               d="m 59.48707,319.22154 c 0.6288,54.39079 87.37566,181.21941 214.90625,308.75 5.03452,5.03452 10.06586,10.00166 15.09375,14.90625 C 149.82226,499.7018 63.96166,360.99695 96.29957,328.65904 c 32.33791,-32.33791 171.04276,53.52269 314.21875,193.1875 -4.90459,-5.02789 -9.87173,-10.05923 -14.90625,-15.09375 C 247.21284,358.35356 99.77308,265.18553 66.29957,298.65904 c -4.70721,4.70721 -6.91539,11.66219 -6.8125,20.5625 z m 351.03125,202.625 c 139.66481,143.17599 225.52541,281.88084 193.1875,314.21875 -32.33791,32.3379 -171.04276,-53.52269 -314.21875,-193.1875 4.90459,5.02789 9.87173,10.05923 14.90625,15.09375 148.39923,148.39923 295.83899,241.56726 329.3125,208.09375 33.47351,-33.47351 -59.69452,-180.91327 -208.09375,-329.3125 -5.03452,-5.03452 -10.06586,-10.00166 -15.09375,-14.90625 z"
               style="fill:#808080;stroke:#808080;stroke-width:4;stroke-linecap:round;stroke-miterlimit:4;stroke-opacity:1;stroke-dasharray:none;stroke-dashoffset:0"
               inkscape:connector-curvature="0" />
            <path
               transform="matrix(0,-1,1,0,-261.64686,891.65011)"
               d="m 502.85715,363.79074 c 0,11.0457 -8.95431,20 -20,20 -11.0457,0 -20,-8.9543 -20,-20 0,-11.04569 8.9543,-20 20,-20 11.04569,0 20,8.95431 20,20 z"
               sodipodi:ry="20"
               sodipodi:rx="20"
               sodipodi:cy="363.79074"
               sodipodi:cx="482.85715"
               id="path3781"
               style="fill:#ff0000;stroke:none"
               sodipodi:type="arc" />
            <path
               sodipodi:type="arc"
               style="fill:#ff0000;stroke:none"
               id="path3815"
               sodipodi:cx="482.85715"
               sodipodi:cy="363.79074"
               sodipodi:rx="20"
               sodipodi:ry="20"
               d="m 502.85715,363.79074 c 0,11.0457 -8.95431,20 -20,20 -11.0457,0 -20,-8.9543 -20,-20 0,-11.04569 8.9543,-20 20,-20 11.04569,0 20,8.95431 20,20 z"
               transform="matrix(0,1,-1,0,961.64683,273.07422)" />
          </g>
        </g>
        <g
           id="g3845"
           transform="matrix(0.1767767,-0.1767767,0.1767767,0.1767767,366.71779,808.26526)">
          <g
             id="g3847">
            <path
               id="path3849"
               d="m 613.14061,291.84925 c -54.39079,0.6288 -181.21941,87.37566 -308.75,214.90625 -5.03452,5.03452 -10.00166,10.06586 -14.90625,15.09375 143.17599,-139.66481 281.88084,-225.52541 314.21875,-193.1875 32.33791,32.33791 -53.52269,171.04276 -193.1875,314.21875 5.02789,-4.90459 10.05923,-9.87173 15.09375,-14.90625 148.39923,-148.39923 241.56726,-295.83899 208.09375,-329.3125 -4.70721,-4.70721 -11.66219,-6.91539 -20.5625,-6.8125 z M 410.51561,642.8805 C 267.33962,782.54531 128.63477,868.40591 96.296859,836.068 63.958954,803.73009 149.81955,665.02524 289.48436,521.84925 c -5.02789,4.90459 -10.05923,9.87173 -15.09375,14.90625 C 125.99138,685.15473 32.823348,832.59449 66.296859,866.068 99.770369,899.54151 247.21013,806.37348 395.60936,657.97425 c 5.03452,-5.03452 10.00166,-10.06586 14.90625,-15.09375 z"
               style="fill:#808080;stroke:#808080;stroke-width:4;stroke-linecap:round;stroke-miterlimit:4;stroke-opacity:1;stroke-dasharray:none;stroke-dashoffset:0"
               inkscape:connector-curvature="0" />
            <path
               transform="translate(40.712038,-29.28468)"
               d="m 502.85715,363.79074 c 0,11.0457 -8.95431,20 -20,20 -11.0457,0 -20,-8.9543 -20,-20 0,-11.04569 8.9543,-20 20,-20 11.04569,0 20,8.95431 20,20 z"
               sodipodi:ry="20"
               sodipodi:rx="20"
               sodipodi:cy="363.79074"
               sodipodi:cx="482.85715"
               id="path3851"
               style="fill:#ff0000;stroke:none"
               sodipodi:type="arc" />
            <path
               sodipodi:type="arc"
               style="fill:#ff0000;stroke:none"
               id="path3853"
               sodipodi:cx="482.85715"
               sodipodi:cy="363.79074"
               sodipodi:rx="20"
               sodipodi:ry="20"
               d="m 502.85715,363.79074 c 0,11.0457 -8.95431,20 -20,20 -11.0457,0 -20,-8.9543 -20,-20 0,-11.04569 8.9543,-20 20,-20 11.04569,0 20,8.95431 20,20 z"
               transform="matrix(-1,0,0,-1,659.28793,1194.009)" />
          </g>
          <g
             id="g3855">
            <path
               inkscape:connector-curvature="0"
               style="fill:#808080;stroke:#808080;stroke-width:4;stroke-linecap:round;stroke-miterlimit:4;stroke-opacity:1;stroke-dasharray:none;stroke-dashoffset:0"
               d="m 59.48707,319.22154 c 0.6288,54.39079 87.37566,181.21941 214.90625,308.75 5.03452,5.03452 10.06586,10.00166 15.09375,14.90625 C 149.82226,499.7018 63.96166,360.99695 96.29957,328.65904 c 32.33791,-32.33791 171.04276,53.52269 314.21875,193.1875 -4.90459,-5.02789 -9.87173,-10.05923 -14.90625,-15.09375 C 247.21284,358.35356 99.77308,265.18553 66.29957,298.65904 c -4.70721,4.70721 -6.91539,11.66219 -6.8125,20.5625 z m 351.03125,202.625 c 139.66481,143.17599 225.52541,281.88084 193.1875,314.21875 -32.33791,32.3379 -171.04276,-53.52269 -314.21875,-193.1875 4.90459,5.02789 9.87173,10.05923 14.90625,15.09375 148.39923,148.39923 295.83899,241.56726 329.3125,208.09375 33.47351,-33.47351 -59.69452,-180.91327 -208.09375,-329.3125 -5.03452,-5.03452 -10.06586,-10.00166 -15.09375,-14.90625 z"
               id="path3857" />
            <path
               sodipodi:type="arc"
               style="fill:#ff0000;stroke:none"
               id="path3859"
               sodipodi:cx="482.85715"
               sodipodi:cy="363.79074"
               sodipodi:rx="20"
               sodipodi:ry="20"
               d="m 502.85715,363.79074 c 0,11.0457 -8.95431,20 -20,20 -11.0457,0 -20,-8.9543 -20,-20 0,-11.04569 8.9543,-20 20,-20 11.04569,0 20,8.95431 20,20 z"
               transform="matrix(0,-1,1,0,-261.64686,891.65011)" />
            <path
               transform="matrix(0,1,-1,0,961.64683,273.07422)"
               d="m 502.85715,363.79074 c 0,11.0457 -8.95431,20 -20,20 -11.0457,0 -20,-8.9543 -20,-20 0,-11.04569 8.9543,-20 20,-20 11.04569,0 20,8.95431 20,20 z"
               sodipodi:ry="20"
               sodipodi:rx="20"
               sodipodi:cy="363.79074"
               sodipodi:cx="482.85715"
               id="path3861"
               style="fill:#ff0000;stroke:none"
               sodipodi:type="arc" />
          </g>
        </g>
        <path
           transform="matrix(0.39488355,0,0,0.39488355,340.3017,623.88967)"
           d="m 608.57142,570.93359 c 0,68.64111 -55.64461,124.28572 -124.28571,124.28572 -68.64111,0 -124.28572,-55.64461 -124.28572,-124.28572 0,-68.6411 55.64461,-124.28571 124.28572,-124.28571 68.6411,0 124.28571,55.64461 124.28571,124.28571 z"
           sodipodi:ry="124.28571"
           sodipodi:rx="124.28571"
           sodipodi:cy="570.93359"
           sodipodi:cx="484.28571"
           id="path3863"
           style="fill:none;stroke:#808080;stroke-width:5.06478453;stroke-miterlimit:4;stroke-dasharray:none"
           sodipodi:type="arc" />
        <path
           sodipodi:type="arc"
           style="fill:none;stroke:#808080;stroke-width:2.49835324;stroke-miterlimit:4;stroke-dasharray:none"
           id="path3865"
           sodipodi:cx="484.28571"
           sodipodi:cy="570.93359"
           sodipodi:rx="124.28571"
           sodipodi:ry="124.28571"
           d="m 608.57142,570.93359 c 0,68.64111 -55.64461,124.28572 -124.28571,124.28572 -68.64111,0 -124.28572,-55.64461 -124.28572,-124.28572 0,-68.6411 55.64461,-124.28571 124.28572,-124.28571 68.6411,0 124.28571,55.64461 124.28571,124.28571 z"
           transform="matrix(0.80052725,0,0,0.80052725,143.85426,392.29404)" />
      </g>
      <g
         transform="translate(-368.87218,0.76028524)"
         id="g4113">
        <path
           transform="matrix(0.2,0,0,0.2,493.25245,710.86952)"
           d="m 234.28572,692.36218 c 0,23.66935 -19.1878,42.85715 -42.85715,42.85715 -23.66934,0 -42.85714,-19.1878 -42.85714,-42.85715 0,-23.66934 19.1878,-42.85714 42.85714,-42.85714 23.66935,0 42.85715,19.1878 42.85715,42.85714 z"
           sodipodi:ry="42.857143"
           sodipodi:rx="42.857143"
           sodipodi:cy="692.36218"
           sodipodi:cx="191.42857"
           id="path4115"
           style="fill:#008000;stroke:none"
           sodipodi:type="arc" />
        <path
           transform="matrix(0.23329621,0,0,0.23329621,418.55614,716.14531)"
           d="m 608.57142,570.93359 c 0,68.64111 -55.64461,124.28572 -124.28571,124.28572 -68.64111,0 -124.28572,-55.64461 -124.28572,-124.28572 0,-68.6411 55.64461,-124.28571 124.28572,-124.28571 68.6411,0 124.28571,55.64461 124.28571,124.28571 z"
           sodipodi:ry="124.28571"
           sodipodi:rx="124.28571"
           sodipodi:cy="570.93359"
           sodipodi:cx="484.28571"
           id="path4117"
           style="fill:none;stroke:#808080;stroke-width:8.57279205;stroke-miterlimit:4;stroke-dasharray:none"
           sodipodi:type="arc" />
        <g
           transform="matrix(0.25,0,0,0.25,444.03817,703.75142)"
           id="g4119">
          <g
             id="g4121">
            <path
               id="path4123"
               d="m 613.14061,291.84925 c -54.39079,0.6288 -181.21941,87.37566 -308.75,214.90625 -5.03452,5.03452 -10.00166,10.06586 -14.90625,15.09375 143.17599,-139.66481 281.88084,-225.52541 314.21875,-193.1875 32.33791,32.33791 -53.52269,171.04276 -193.1875,314.21875 5.02789,-4.90459 10.05923,-9.87173 15.09375,-14.90625 148.39923,-148.39923 241.56726,-295.83899 208.09375,-329.3125 -4.70721,-4.70721 -11.66219,-6.91539 -20.5625,-6.8125 z M 410.51561,642.8805 C 267.33962,782.54531 128.63477,868.40591 96.296859,836.068 63.958954,803.73009 149.81955,665.02524 289.48436,521.84925 c -5.02789,4.90459 -10.05923,9.87173 -15.09375,14.90625 C 125.99138,685.15473 32.823348,832.59449 66.296859,866.068 99.770369,899.54151 247.21013,806.37348 395.60936,657.97425 c 5.03452,-5.03452 10.00166,-10.06586 14.90625,-15.09375 z"
               style="fill:#808080;stroke:#808080;stroke-width:4;stroke-linecap:round;stroke-miterlimit:4;stroke-opacity:1;stroke-dasharray:none;stroke-dashoffset:0"
               inkscape:connector-curvature="0" />
            <path
               transform="translate(40.712038,-29.28468)"
               d="m 502.85715,363.79074 c 0,11.0457 -8.95431,20 -20,20 -11.0457,0 -20,-8.9543 -20,-20 0,-11.04569 8.9543,-20 20,-20 11.04569,0 20,8.95431 20,20 z"
               sodipodi:ry="20"
               sodipodi:rx="20"
               sodipodi:cy="363.79074"
               sodipodi:cx="482.85715"
               id="path4125"
               style="fill:#ff0000;stroke:none"
               sodipodi:type="arc" />
            <path
               sodipodi:type="arc"
               style="fill:#ff0000;stroke:none"
               id="path4127"
               sodipodi:cx="482.85715"
               sodipodi:cy="363.79074"
               sodipodi:rx="20"
               sodipodi:ry="20"
               d="m 502.85715,363.79074 c 0,11.0457 -8.95431,20 -20,20 -11.0457,0 -20,-8.9543 -20,-20 0,-11.04569 8.9543,-20 20,-20 11.04569,0 20,8.95431 20,20 z"
               transform="matrix(-1,0,0,-1,659.28793,1194.009)" />
          </g>
          <g
             id="g4129">
            <path
               inkscape:connector-curvature="0"
               style="fill:#808080;stroke:#808080;stroke-width:4;stroke-linecap:round;stroke-miterlimit:4;stroke-opacity:1;stroke-dasharray:none;stroke-dashoffset:0"
               d="m 59.48707,319.22154 c 0.6288,54.39079 87.37566,181.21941 214.90625,308.75 5.03452,5.03452 10.06586,10.00166 15.09375,14.90625 C 149.82226,499.7018 63.96166,360.99695 96.29957,328.65904 c 32.33791,-32.33791 171.04276,53.52269 314.21875,193.1875 -4.90459,-5.02789 -9.87173,-10.05923 -14.90625,-15.09375 C 247.21284,358.35356 99.77308,265.18553 66.29957,298.65904 c -4.70721,4.70721 -6.91539,11.66219 -6.8125,20.5625 z m 351.03125,202.625 c 139.66481,143.17599 225.52541,281.88084 193.1875,314.21875 -32.33791,32.3379 -171.04276,-53.52269 -314.21875,-193.1875 4.90459,5.02789 9.87173,10.05923 14.90625,15.09375 148.39923,148.39923 295.83899,241.56726 329.3125,208.09375 33.47351,-33.47351 -59.69452,-180.91327 -208.09375,-329.3125 -5.03452,-5.03452 -10.06586,-10.00166 -15.09375,-14.90625 z"
               id="path4131" />
            <path
               sodipodi:type="arc"
               style="fill:#ff0000;stroke:none"
               id="path4133"
               sodipodi:cx="482.85715"
               sodipodi:cy="363.79074"
               sodipodi:rx="20"
               sodipodi:ry="20"
               d="m 502.85715,363.79074 c 0,11.0457 -8.95431,20 -20,20 -11.0457,0 -20,-8.9543 -20,-20 0,-11.04569 8.9543,-20 20,-20 11.04569,0 20,8.95431 20,20 z"
               transform="matrix(0,-1,1,0,-261.64686,891.65011)" />
            <path
               transform="matrix(0,1,-1,0,961.64683,273.07422)"
               d="m 502.85715,363.79074 c 0,11.0457 -8.95431,20 -20,20 -11.0457,0 -20,-8.9543 -20,-20 0,-11.04569 8.9543,-20 20,-20 11.04569,0 20,8.95431 20,20 z"
               sodipodi:ry="20"
               sodipodi:rx="20"
               sodipodi:cy="363.79074"
               sodipodi:cx="482.85715"
               id="path4135"
               style="fill:#ff0000;stroke:none"
               sodipodi:type="arc" />
          </g>
        </g>
        <g
           transform="matrix(0.1767767,-0.1767767,0.1767767,0.1767767,366.71779,808.26526)"
           id="g4137">
          <g
             id="g4139">
            <path
               inkscape:connector-curvature="0"
               style="fill:#808080;stroke:#808080;stroke-width:4;stroke-linecap:round;stroke-miterlimit:4;stroke-opacity:1;stroke-dasharray:none;stroke-dashoffset:0"
               d="m 613.14061,291.84925 c -54.39079,0.6288 -181.21941,87.37566 -308.75,214.90625 -5.03452,5.03452 -10.00166,10.06586 -14.90625,15.09375 143.17599,-139.66481 281.88084,-225.52541 314.21875,-193.1875 32.33791,32.33791 -53.52269,171.04276 -193.1875,314.21875 5.02789,-4.90459 10.05923,-9.87173 15.09375,-14.90625 148.39923,-148.39923 241.56726,-295.83899 208.09375,-329.3125 -4.70721,-4.70721 -11.66219,-6.91539 -20.5625,-6.8125 z M 410.51561,642.8805 C 267.33962,782.54531 128.63477,868.40591 96.296859,836.068 63.958954,803.73009 149.81955,665.02524 289.48436,521.84925 c -5.02789,4.90459 -10.05923,9.87173 -15.09375,14.90625 C 125.99138,685.15473 32.823348,832.59449 66.296859,866.068 99.770369,899.54151 247.21013,806.37348 395.60936,657.97425 c 5.03452,-5.03452 10.00166,-10.06586 14.90625,-15.09375 z"
               id="path4141" />
            <path
               sodipodi:type="arc"
               style="fill:#ff0000;stroke:none"
               id="path4143"
               sodipodi:cx="482.85715"
               sodipodi:cy="363.79074"
               sodipodi:rx="20"
               sodipodi:ry="20"
               d="m 502.85715,363.79074 c 0,11.0457 -8.95431,20 -20,20 -11.0457,0 -20,-8.9543 -20,-20 0,-11.04569 8.9543,-20 20,-20 11.04569,0 20,8.95431 20,20 z"
               transform="translate(40.712038,-29.28468)" />
            <path
               transform="matrix(-1,0,0,-1,659.28793,1194.009)"
               d="m 502.85715,363.79074 c 0,11.0457 -8.95431,20 -20,20 -11.0457,0 -20,-8.9543 -20,-20 0,-11.04569 8.9543,-20 20,-20 11.04569,0 20,8.95431 20,20 z"
               sodipodi:ry="20"
               sodipodi:rx="20"
               sodipodi:cy="363.79074"
               sodipodi:cx="482.85715"
               id="path4145"
               style="fill:#ff0000;stroke:none"
               sodipodi:type="arc" />
          </g>
          <g
             id="g4147">
            <path
               id="path4149"
               d="m 59.48707,319.22154 c 0.6288,54.39079 87.37566,181.21941 214.90625,308.75 5.03452,5.03452 10.06586,10.00166 15.09375,14.90625 C 149.82226,499.7018 63.96166,360.99695 96.29957,328.65904 c 32.33791,-32.33791 171.04276,53.52269 314.21875,193.1875 -4.90459,-5.02789 -9.87173,-10.05923 -14.90625,-15.09375 C 247.21284,358.35356 99.77308,265.18553 66.29957,298.65904 c -4.70721,4.70721 -6.91539,11.66219 -6.8125,20.5625 z m 351.03125,202.625 c 139.66481,143.17599 225.52541,281.88084 193.1875,314.21875 -32.33791,32.3379 -171.04276,-53.52269 -314.21875,-193.1875 4.90459,5.02789 9.87173,10.05923 14.90625,15.09375 148.39923,148.39923 295.83899,241.56726 329.3125,208.09375 33.47351,-33.47351 -59.69452,-180.91327 -208.09375,-329.3125 -5.03452,-5.03452 -10.06586,-10.00166 -15.09375,-14.90625 z"
               style="fill:#808080;stroke:#808080;stroke-width:4;stroke-linecap:round;stroke-miterlimit:4;stroke-opacity:1;stroke-dasharray:none;stroke-dashoffset:0"
               inkscape:connector-curvature="0" />
            <path
               transform="matrix(0,-1,1,0,-261.64686,891.65011)"
               d="m 502.85715,363.79074 c 0,11.0457 -8.95431,20 -20,20 -11.0457,0 -20,-8.9543 -20,-20 0,-11.04569 8.9543,-20 20,-20 11.04569,0 20,8.95431 20,20 z"
               sodipodi:ry="20"
               sodipodi:rx="20"
               sodipodi:cy="363.79074"
               sodipodi:cx="482.85715"
               id="path4151"
               style="fill:#ff0000;stroke:none"
               sodipodi:type="arc" />
            <path
               sodipodi:type="arc"
               style="fill:#ff0000;stroke:none"
               id="path4153"
               sodipodi:cx="482.85715"
               sodipodi:cy="363.79074"
               sodipodi:rx="20"
               sodipodi:ry="20"
               d="m 502.85715,363.79074 c 0,11.0457 -8.95431,20 -20,20 -11.0457,0 -20,-8.9543 -20,-20 0,-11.04569 8.9543,-20 20,-20 11.04569,0 20,8.95431 20,20 z"
               transform="matrix(0,1,-1,0,961.64683,273.07422)" />
          </g>
        </g>
        <path
           sodipodi:type="arc"
           style="fill:none;stroke:#808080;stroke-width:5.06478453;stroke-miterlimit:4;stroke-dasharray:none"
           id="path4155"
           sodipodi:cx="484.28571"
           sodipodi:cy="570.93359"
           sodipodi:rx="124.28571"
           sodipodi:ry="124.28571"
           d="m 608.57142,570.93359 c 0,68.64111 -55.64461,124.28572 -124.28571,124.28572 -68.64111,0 -124.28572,-55.64461 -124.28572,-124.28572 0,-68.6411 55.64461,-124.28571 124.28572,-124.28571 68.6411,0 124.28571,55.64461 124.28571,124.28571 z"
           transform="matrix(0.39488355,0,0,0.39488355,340.3017,623.88967)" />
      </g>
    </g>
  </g>
</svg>
